<?xml version="1.0" encoding="UTF-8"?>
<svg width="24px" height="24px" viewBox="0 0 24 24" version="1.1" xmlns="http://www.w3.org/2000/svg" xmlns:xlink="http://www.w3.org/1999/xlink">
    <!-- Generator: Sketch 52.2 (67145) - http://www.bohemiancoding.com/sketch -->
    <title>Icon/Social/Behance</title>
    <desc>Created with Sketch.</desc>
    <defs>
        <path d="M14.981,8.11726 L20.069,8.11726 L20.069,6.65997 L14.981,6.65997 L14.981,8.11726 Z M17.489,11.04322 C16.354,11.04322 15.492,11.74656 15.409,13.04584 L19.481,13.04584 C19.205,11.50385 18.52,11.04322 17.489,11.04322 Z M17.648,17.06968 C18.696,17.06968 19.465,16.40764 19.622,15.84992 L21.826,15.84992 C21.196,17.86701 19.895,19 17.559,19 C14.578,19 12.905,16.87964 12.905,14.06626 C12.905,7.44077 22.465,7.20323 21.985,14.68491 L15.409,14.68491 C15.473,16.20418 16.1,17.06968 17.648,17.06968 Z M7.73,16.77842 C8.933,16.77842 9.775,16.31572 9.775,15.06705 C9.775,13.77191 9.031,13.21006 7.782,13.21006 L4.768,13.21006 L4.768,16.77842 L7.73,16.77842 Z M7.571,11.26218 C8.572,11.26218 9.263,10.79638 9.263,9.71399 C9.263,8.57377 8.459,8.22158 7.36,8.22158 L4.768,8.22158 L4.768,11.26218 L7.571,11.26218 Z M7.924,6 C10.295,6 11.943,6.7839 11.943,9.22237 C11.943,10.42973 11.458,11.32931 10.233,11.93557 C11.801,12.40137 12.543,13.62422 12.543,15.23127 C12.543,17.78232 10.52,19 8.1,19 L2,19 L2,6 L7.924,6 Z" id="path-1"></path>
    </defs>
    <g id="Icon/Social/Behance" stroke="none" stroke-width="1" fill="none" fill-rule="evenodd">
        <rect id="24pt-Bounding-Box" x="0" y="0" width="24" height="24"></rect>
        <mask id="mask-2" fill="white">
            <use xlink:href="#path-1"></use>
        </mask>
        <use id="Fill" fill="#5450F7" xlink:href="#path-1"></use>
    </g>
</svg>