<?xml version="1.0" encoding="UTF-8"?>
<svg width="24px" height="24px" viewBox="0 0 24 24" version="1.1" xmlns="http://www.w3.org/2000/svg" xmlns:xlink="http://www.w3.org/1999/xlink">
    <!-- Generator: Sketch 52.2 (67145) - http://www.bohemiancoding.com/sketch -->
    <title>Icon/Heart/Line</title>
    <desc>Created with Sketch.</desc>
    <defs>
        <path d="M16.5833333,3 C19.9128091,3 22,5.86997684 22,9.54566205 C22,14.2223772 17.5695997,18.6462594 12.3046422,20.8712567 L12,21 L11.6953578,20.8712567 C6.43040026,18.6462594 2,14.2223772 2,9.54566205 C2,5.86997684 4.08719091,3 7.41666667,3 C9.3384889,3 10.5587871,3.63134804 12,5.06723131 C13.4412129,3.63134804 14.6615111,3 16.5833333,3 Z M20.3333333,9.54566205 C20.3333333,6.77739451 18.8904238,4.79333207 16.5833333,4.79333207 C14.9536691,4.79333207 14.0297678,5.38057783 12.5932378,6.94738906 L12,7.5944285 L11.4067622,6.94738906 C9.97023222,5.38057783 9.04633091,4.79333207 7.41666667,4.79333207 C5.10957625,4.79333207 3.66666667,6.77739451 3.66666667,9.54566205 C3.66666667,13.2004103 7.43914746,17.0466525 12,19.0701103 C16.5608525,17.0466525 20.3333333,13.2004103 20.3333333,9.54566205 Z" id="path-1"></path>
    </defs>
    <g id="Icon/Heart/Line" stroke="none" stroke-width="1" fill="none" fill-rule="evenodd">
        <rect id="24pt-Bounding-Box" x="0" y="0" width="24" height="24"></rect>
        <mask id="mask-2" fill="white">
            <use xlink:href="#path-1"></use>
        </mask>
        <use id="Fill" fill="#25A9CE" xlink:href="#path-1"></use>
    </g>
</svg>