<?xml version="1.0" encoding="UTF-8"?>
<svg width="24px" height="24px" viewBox="0 0 24 24" version="1.1" xmlns="http://www.w3.org/2000/svg" xmlns:xlink="http://www.w3.org/1999/xlink">
    <!-- Generator: Sketch 52.2 (67145) - http://www.bohemiancoding.com/sketch -->
    <title>Icon/Activity Rings</title>
    <desc>Created with Sketch.</desc>
    <defs>
        <path d="M13.170047,13.175744 C13.8188519,12.522997 13.815649,11.4678881 13.1628936,10.8190955 C12.5101376,10.1702995 11.4550143,10.1735024 10.8062128,10.8262489 C10.157408,11.4789959 10.1606109,12.5341048 10.8133664,13.1828974 C11.1293766,13.4969911 11.5580095,13.6714569 12.0035426,13.6673359 C12.4419025,13.663281 12.8610068,13.4866602 13.1700471,13.1757443 L13.170047,13.175744 Z M12.0035425,17.8333662 C15.2247197,17.8181626 17.8236751,15.1945941 17.8084688,11.9734609 C17.793265,8.75232781 15.1696607,6.15340799 11.9484835,6.168614 C11.4464832,6.17098339 10.9468894,6.23815171 10.4620901,6.36845348 C9.79483867,6.55021906 9.40127921,7.23847897 9.58304561,7.90571875 C9.76481367,8.57296103 10.453083,8.9665151 11.1203319,8.78475119 L11.1203318,8.78475123 C12.897593,8.30570438 14.7266971,9.35809618 15.2057555,11.135334 C15.5149525,12.2824255 15.1901508,13.5073718 14.3532157,14.350568 C13.0333241,15.6096341 10.9570961,15.6096341 9.63720454,14.350568 L9.6372047,14.3505681 C8.80085429,13.4997564 8.48307347,12.2667946 8.80398719,11.1177284 L8.80398724,11.1177282 C8.9515159,10.443427 8.52447526,9.77720791 7.8501615,9.62968044 C7.22440515,9.49277635 6.59643578,9.85112246 6.39598865,10.4594987 L6.39598846,10.4594994 C5.5446568,13.5661334 7.37296931,16.7746935 10.4796458,17.6260135 C10.9762309,17.7620927 11.4886472,17.8318179 12.0035423,17.8333693 L12.0035425,17.8333662 Z M19.0692269,4.92700359 L19.0692271,4.92700371 C16.5322131,2.39125758 12.8312442,1.40879093 9.3705753,2.35239685 C8.69370934,2.4877137 8.25469703,3.14611066 8.39001989,3.82296398 C8.52533858,4.49982062 9.18374455,4.93882692 9.86060712,4.80350592 C9.91479476,4.7926729 9.96820467,4.77825811 10.0204841,4.76035642 C14.0156369,3.66891478 18.139147,6.02278868 19.2306203,10.017887 C20.3220769,14.0129853 17.9681708,18.136439 13.9730178,19.2278973 C9.97786489,20.319339 5.85435477,17.9654651 4.7628815,13.9703668 C4.40942064,12.676581 4.40942064,11.3116811 4.7628814,10.0179036 C4.98649785,9.36487744 4.63838541,8.65422012 3.98535119,8.43060426 C3.33231613,8.20699091 2.62164909,8.55509859 2.39803018,9.20812387 C2.38012808,9.2604033 2.36571292,9.31381273 2.35487976,9.36799946 L2.35487964,9.36799989 C0.901806637,14.6953947 4.04262836,20.1920138 9.37010444,21.6451252 C14.6975722,23.0981783 20.1942664,19.9573996 21.6473977,14.6299964 C22.5918414,11.1673835 21.607883,7.46420726 19.0692561,4.92706134 L19.0692269,4.92700359 Z" id="path-1"></path>
    </defs>
    <g id="Icon/Activity-Rings" stroke="none" stroke-width="1" fill="none" fill-rule="evenodd">
        <rect id="24pt-Bounding-Box" x="0" y="0" width="24" height="24"></rect>
        <mask id="mask-2" fill="white">
            <use xlink:href="#path-1"></use>
        </mask>
        <use id="Fill" fill="#5450F7" xlink:href="#path-1"></use>
    </g>
</svg>