<?xml version="1.0" encoding="UTF-8"?>
<svg width="24px" height="24px" viewBox="0 0 24 24" version="1.1" xmlns="http://www.w3.org/2000/svg" xmlns:xlink="http://www.w3.org/1999/xlink">
    <!-- Generator: Sketch 52.2 (67145) - http://www.bohemiancoding.com/sketch -->
    <title>Icon/Medal</title>
    <desc>Created with Sketch.</desc>
    <defs>
        <path d="M11.9991107,8.66666663 L11.9991104,8.66666663 C8.37058469,8.66666679 5.42908638,11.6514333 5.42908638,15.3333333 C5.42908654,19.0152333 8.37058469,22 11.9991104,22 C15.6276361,21.9999998 18.5691344,19.0152333 18.5691344,15.3333333 L18.5691344,15.3333336 C18.5691344,11.6514336 15.6276361,8.66666692 11.9991104,8.66666692 L11.9991107,8.66666663 Z M14.9145589,15.0166666 L13.5677039,16.0833333 L14.126156,17.875 C14.1890636,18.06018 14.1217287,18.2651558 13.9619054,18.375 C13.8885885,18.4308343 13.798968,18.4601692 13.707317,18.4583333 C13.6123005,18.4571362 13.5201756,18.4250024 13.444516,18.3666667 L11.9991107,17.2333333 L10.5454929,18.3666667 C10.3926577,18.4847408 10.1809387,18.4847408 10.0281035,18.3666667 C9.86978646,18.2556283 9.80011875,18.05365 9.85564038,17.8666667 L10.422305,16.075 L9.08366255,15.0166667 C8.87333393,14.8893208 8.80456631,14.6130733 8.93006527,14.3996508 C9.01968122,14.2472508 9.18919933,14.1625292 9.3628886,14.1833333 L11.0053946,14.1833333 L11.5638466,12.5166667 C11.620646,12.3346251 11.7863035,12.2102359 11.9744731,12.2083334 C12.1656739,12.2066051 12.3355969,12.3316959 12.3933121,12.5166668 L12.9599767,14.1833334 L14.6024827,14.1833334 C14.7906868,14.1830212 14.9585871,14.3032826 15.0213218,14.4833334 C15.1021512,14.665946 15.0591964,14.880526 14.9145589,15.0166668 L14.9145589,15.0166666 Z M20.7454552,3.39999995 C20.3375027,2.5549 19.4964279,2.01385 18.5691348,2 L5.42908669,2 L5.42908682,2 C4.50179363,2.01384967 3.66071558,2.5549025 3.25276636,3.4 L3.25276648,3.39999975 C2.83769864,4.25669975 2.9396687,5.27846642 3.51556744,6.03333309 L6.16000212,9.49999977 L6.16000163,9.50000027 C6.9371632,8.68980027 7.87104941,8.0514336 8.90298666,7.62500027 L7.14550523,5.33333359 L16.8527157,5.33333359 L15.1034468,7.62500027 L15.1034464,7.62500008 C16.1317866,8.05370092 17.0625537,8.69185008 17.8382189,9.50000009 L20.474441,6.05000008 L20.4744412,6.04999993 C21.0597506,5.29316076 21.1651388,4.26266659 20.7454547,3.39999992 L20.7454552,3.39999995 Z" id="path-1"></path>
    </defs>
    <g id="Icon/Medal" stroke="none" stroke-width="1" fill="none" fill-rule="evenodd">
        <rect id="24pt-Bounding-Box" x="0" y="0" width="24" height="24"></rect>
        <mask id="mask-2" fill="white">
            <use xlink:href="#path-1"></use>
        </mask>
        <use id="Fill" fill="#5450F7" xlink:href="#path-1"></use>
    </g>
</svg>