<?xml version="1.0" encoding="UTF-8"?>
<svg width="24px" height="24px" viewBox="0 0 24 24" version="1.1" xmlns="http://www.w3.org/2000/svg" xmlns:xlink="http://www.w3.org/1999/xlink">
    <!-- Generator: Sketch 52.2 (67145) - http://www.bohemiancoding.com/sketch -->
    <title>Icon/Info/Fill</title>
    <desc>Created with Sketch.</desc>
    <defs>
        <path d="M12.0000004,2 L12,2 C6.47715,2.00000024 2,6.47715 2,12 C2.00000024,17.52285 6.47715,22 12,22 C17.52285,21.9999998 22,17.52285 22,12 L22,12.0000004 C22,6.47715044 17.52285,2.00000044 12,2.00000044 L12.0000004,2 Z M12.8333338,17 C12.8333338,17.4602375 12.4602379,17.8333333 12.0000004,17.8333333 C11.5397629,17.8333333 11.1666671,17.4602375 11.1666671,17 C11.1666671,17 11.1666671,17 11.1666671,17 L11.1666671,11.1666667 L11.1666671,11.1666668 C11.166667,10.7064293 11.5397629,10.3333335 12.0000004,10.3333335 C12.4602379,10.3333334 12.8333337,10.7064293 12.8333337,11.1666668 L12.8333338,17 Z M12.0000004,8.66666667 C11.3096445,8.66666664 10.7500004,8.1070225 10.7500004,7.41666667 C10.7500004,6.72631083 11.3096445,6.16666667 12.0000004,6.16666667 C12.6903562,6.1666667 13.2500004,6.72631083 13.2500004,7.41666667 C13.2500004,8.10702245 12.6903562,8.66666661 12.0000004,8.66666661 Z" id="path-1"></path>
    </defs>
    <g id="Icon/Info/Fill" stroke="none" stroke-width="1" fill="none" fill-rule="evenodd">
        <rect id="24pt-Bounding-Box" x="0" y="0" width="24" height="24"></rect>
        <mask id="mask-2" fill="white">
            <use xlink:href="#path-1"></use>
        </mask>
        <use id="Fill" fill="#5450F7" xlink:href="#path-1"></use>
    </g>
</svg>