<?xml version="1.0" encoding="UTF-8"?>
<svg width="24px" height="24px" viewBox="0 0 24 24" version="1.1" xmlns="http://www.w3.org/2000/svg" xmlns:xlink="http://www.w3.org/1999/xlink">
    <!-- Generator: Sketch 52.2 (67145) - http://www.bohemiancoding.com/sketch -->
    <title>Icon/Social/Dribbble</title>
    <desc>Created with Sketch.</desc>
    <defs>
        <path d="M15.12,12.9287823 C15.8,14.8989323 16.26,16.9229923 16.5,18.9999823 C18.591,17.6519423 20.01,15.4351523 20.28,12.9287823 C18.253,12.7899823 16.892,12.8019623 15.12,12.9287823 M13.94,9.91315226 C14.14,10.3395323 14.367,10.8787523 14.62,11.5308123 C16.441,11.3590623 18.473,11.3610523 20.3,11.4509223 C20.193,9.64055226 19.54,8.02888226 18.34,6.61793226 C17.473,7.90906226 16.007,9.00746226 13.94,9.91315226 M9.96,3.96178226 C11.133,5.17302226 12.22,6.68483226 13.22,8.49521226 C15.033,7.73631226 16.4,6.77071226 17.32,5.59940226 C15.089,3.75607226 12.34,3.30972226 9.96,3.96178226 M6.9,18.5805823 C9.3,20.4468823 12.276,20.7993623 14.94,19.7788423 C14.673,17.5021423 14.153,15.2983423 13.38,13.1684223 C10.78,13.7326123 8.035,16.3398323 6.9,18.5805823 M3.92,9.95308226 C5.09,10.0589323 8.288,10.0749123 11.56,9.09433226 C10.547,7.29693226 9.433,5.79910226 8.22,4.60084226 C6.073,5.68627226 4.524,7.69835226 3.92,9.95308226 M5.76,17.5021423 C7.012,15.0536923 10.125,12.3975423 12.86,11.7904223 C12.66,11.3241023 12.467,10.9047023 12.28,10.5322423 C9.508,11.4179623 6.348,11.7504823 3.68,11.6106823 C3.68,13.7415923 4.029,15.5429823 5.76,17.5021423 M2,12.0101023 C2,8.26253226 4.008,5.09213226 6.98,3.36263226 C13.603,-0.490777741 22,4.28030226 22,12.0101023 C22,15.7576723 19.992,18.9280823 17.02,20.6575723 C13.948,22.4449823 10.061,22.4499723 6.98,20.6575723 C4.005,18.9270823 2,15.7546823 2,12.0101023" id="path-1"></path>
    </defs>
    <g id="Icon/Social/Dribbble" stroke="none" stroke-width="1" fill="none" fill-rule="evenodd">
        <rect id="24pt-Bounding-Box" x="0" y="0" width="24" height="24"></rect>
        <mask id="mask-2" fill="white">
            <use xlink:href="#path-1"></use>
        </mask>
        <use id="Fill" fill="#5450F7" xlink:href="#path-1"></use>
    </g>
</svg>