<?xml version="1.0" encoding="UTF-8"?>
<svg width="24px" height="24px" viewBox="0 0 24 24" version="1.1" xmlns="http://www.w3.org/2000/svg" xmlns:xlink="http://www.w3.org/1999/xlink">
    <!-- Generator: Sketch 52.2 (67145) - http://www.bohemiancoding.com/sketch -->
    <title>Icon/Social/Medium</title>
    <desc>Created with Sketch.</desc>
    <defs>
        <path d="M21.1666667,2.00000013 L2.83333337,2.00000013 C2.37309583,2.00000015 2,2.37309596 2,2.83333346 C2,2.83333346 2,2.83333346 2,2.83333346 L2,21.1666668 L2,21.1666667 C1.99999993,21.6269042 2.37309583,22 2.83333333,22 L21.1666667,22 C21.6269042,22 22,21.6269042 22,21.1666667 L22,2.83333333 C22,2.37309583 21.6269042,2 21.1666667,2 L21.1666667,2.00000013 Z M18.6150001,6.73833346 L17.5425001,7.76666679 C17.4500675,7.83708948 17.4041992,7.95288348 17.4233334,8.06750015 L17.4233334,15.6241668 C17.4041988,15.7387835 17.4500673,15.8545777 17.5425,15.9250002 L18.59,16.9533335 L18.59,17.1791669 L13.3216667,17.1791669 L13.3216667,16.9533335 L14.405,15.9000002 C14.5116667,15.7933335 14.5116667,15.7616669 14.5116667,15.5991669 L14.5116667,9.49166688 L11.4941667,17.1583335 L11.0866667,17.1583335 L7.57583334,9.49166688 L7.57583334,14.6275002 C7.54654634,14.8432952 7.618151,15.0605677 7.77,15.2166669 L9.18166667,16.9283336 L9.18166667,17.1541669 L5.18166666,17.1541669 L5.18166666,16.9283336 L6.59083333,15.2166669 C6.74157835,15.0603086 6.80901585,14.8415994 6.77250002,14.6275002 L6.77250002,8.6891669 C6.78985877,8.52461444 6.72799518,8.3616036 6.60583335,8.25000027 L5.34916668,6.7383336 L5.34916668,6.51250027 L9.24416669,6.51250027 L12.255,13.1158336 L14.9016667,6.51250027 L18.6150001,6.51250027 L18.6150001,6.73833346 Z" id="path-1"></path>
    </defs>
    <g id="Icon/Social/Medium" stroke="none" stroke-width="1" fill="none" fill-rule="evenodd">
        <rect id="24pt-Bounding-Box" x="0" y="0" width="24" height="24"></rect>
        <mask id="mask-2" fill="white">
            <use xlink:href="#path-1"></use>
        </mask>
        <use id="Fill" fill="#5450F7" xlink:href="#path-1"></use>
    </g>
</svg>