<?xml version="1.0" encoding="UTF-8"?>
<svg width="24px" height="24px" viewBox="0 0 24 24" version="1.1" xmlns="http://www.w3.org/2000/svg" xmlns:xlink="http://www.w3.org/1999/xlink">
    <!-- Generator: Sketch 52.2 (67145) - http://www.bohemiancoding.com/sketch -->
    <title>Icon/Social/Meetup</title>
    <desc>Created with Sketch.</desc>
    <defs>
        <path d="M21.2641063,12.2113948 C21.9683061,11.4838891 22.1949834,10.3200499 21.8224659,9.37947084 C21.5257853,8.62989385 20.9974271,8.12904399 20.2598924,7.85145433 C20.1465537,7.80900942 20.124886,7.74619097 20.1215525,7.63838091 C20.1123854,7.33532431 20.1098853,7.0314188 20.0748837,6.73090889 C19.9790458,5.91426895 19.6715313,5.17742544 19.1856751,4.52462283 C18.4056384,3.47708262 17.3747566,2.84635137 16.093863,2.64686032 C15.3746625,2.53480578 14.6662958,2.58234407 13.9737632,2.80645316 C13.8145891,2.85823594 13.6962501,2.84040908 13.5562436,2.75721707 C12.7103704,2.25297162 11.794494,2.00594229 10.9361203,2 C9.97440834,2.00339559 9.17603743,2.18930427 8.42933563,2.57640178 C7.25094684,3.18845728 6.39840672,4.11630286 5.88754935,5.36163632 C5.83504688,5.49066882 5.75670986,5.54924279 5.62670374,5.57131414 C4.83833331,5.70374224 4.18163574,6.08065297 3.64077695,6.67827721 C2.61739546,7.81070722 2.41321918,9.57471739 3.16325448,10.9142785 C3.23575789,11.0441599 3.2232573,11.1205608 3.12241922,11.226673 C2.45655455,11.9227694 2.07320318,12.7529917 2.00986687,13.7275267 C1.94986404,14.6426388 2.16237404,15.4855946 2.67906503,16.2411139 C3.27325965,17.1095366 4.08829801,17.6341556 5.10334578,17.8412867 C5.20168374,17.8616603 5.24251899,17.913443 5.24918597,18.0170086 C5.26085319,18.1935794 5.27585389,18.3709991 5.3091888,18.5441743 C5.50003111,19.5382339 5.96255288,20.3743985 6.72925562,21.0238055 C7.76680445,21.9015661 9.08686657,22.1655734 10.2785893,21.9032639 C10.8486161,21.777627 11.3753076,21.5484245 11.8353292,21.1766072 C11.915333,21.1120909 11.9728357,21.0985086 12.0553396,21.1672693 C12.5070275,21.54418 13.0187183,21.7827204 13.6012457,21.8616679 C14.7312989,22.0144696 15.6638427,21.6392566 16.4072111,20.769985 C16.6780571,20.453346 16.8622325,20.0840754 16.9805714,19.6808488 C17.0047392,19.5993546 17.0255735,19.5136159 17.1405789,19.5119181 C17.9597841,19.4991846 18.4439736,19.3777922 18.8606598,19.2020703 C20.4324005,18.5399298 21.3891122,17.355717 21.6874595,15.6443385 C21.8699681,14.5967983 21.6949599,13.600192 21.20077,12.6621596 C21.0499295,12.3735343 21.0374289,12.4456906 21.2641063,12.2113948 Z M17.3347547,16.7614884 C17.0680755,16.8455293 16.682224,16.9015565 16.5030489,16.898161 C15.9413558,16.8930676 15.3871631,16.8166667 14.8763057,16.5789753 C14.1971071,16.2631852 13.7862544,15.7097037 13.6204132,14.9643712 C13.4929072,14.3905161 13.6620819,13.8735372 13.8970929,13.3684428 C14.3346135,12.4270149 14.7804678,11.4889825 15.2163217,10.5467057 C15.3796627,10.1927152 15.711345,9.53906367 15.3721623,9.35400389 C14.9763104,9.13838379 14.6987973,9.60442882 14.4879541,10.0229356 C13.9679296,11.0534978 13.4570722,12.0883045 12.942048,13.1205646 C12.7037034,13.5984942 12.4728592,14.0806683 12.2211807,14.5509578 C11.9886698,14.9847447 11.6378199,15.2589388 11.1277959,15.2283785 C10.3519261,15.182538 10.1344159,14.6630124 10.4335966,13.899853 C10.8127811,12.9329581 11.1936324,11.9660632 11.5678167,10.9966216 C11.666988,10.7394055 11.7778265,10.4821894 11.7269908,10.1910174 C11.6836554,9.93889466 11.5478157,9.77590623 11.3328056,9.73261243 C11.1536305,9.69610981 10.8769508,9.8327824 10.7869466,10.0297267 C10.6394396,10.3557036 10.5069334,10.6884716 10.3769273,11.0220886 C9.81190069,12.4635175 9.25520782,13.9091909 8.68434763,15.3480731 C8.52684022,15.7453574 8.28932904,16.1095347 7.87430951,16.2555451 C6.71508829,16.6621673 5.33085648,15.9049502 5.4516955,14.4821971 C5.48919727,14.0382234 6.4659099,10.9168252 6.52841284,10.7164853 C6.81675974,9.79712868 7.09343943,8.8709809 7.5192928,8.00425598 C7.81097319,7.41002734 8.31516359,7.07895709 8.92352555,6.89050172 C9.42854932,6.73430448 9.89273783,6.85315021 10.3435924,7.09338836 C10.5811036,7.21987417 10.8286152,7.32598643 11.0677931,7.44907665 C11.2453015,7.53990874 11.4236432,7.53821094 11.5778171,7.4270053 C11.7961607,7.26995916 12.007004,7.09933065 12.2020132,6.91257307 C12.6345335,6.49831082 13.2987314,6.42870118 13.7104175,6.66214815 C13.9404283,6.79287845 14.1287705,6.99916068 14.3321134,7.17573147 C14.5312894,7.34890668 14.6179602,7.37097803 14.8354704,7.22581646 C15.2479898,6.95162238 15.7055114,6.97029814 16.1621995,6.99746288 C17.3580891,7.06961921 17.7347735,8.20459592 17.5514316,9.02632924 C17.3672562,9.85230705 16.9972388,10.6044307 16.6763904,11.3760791 C16.4097112,12.0186949 16.1388651,12.6596129 15.8913534,13.3098689 C15.7455133,13.691873 15.6496754,14.091704 15.6455085,14.5068151 C15.6413417,14.9499399 15.8405177,15.1944225 16.2713713,15.2759168 C16.7680614,15.3709933 17.0464078,15.3777845 17.3614226,15.5085148 C17.646436,15.6265117 17.7606081,15.8633542 17.7556078,16.1604685 C17.7506076,16.4533384 17.6081009,16.6757497 17.3347547,16.7614884 Z" id="path-1"></path>
    </defs>
    <g id="Icon/Social/Meetup" stroke="none" stroke-width="1" fill="none" fill-rule="evenodd">
        <rect id="24pt-Bounding-Box" x="0" y="0" width="24" height="24"></rect>
        <mask id="mask-2" fill="white">
            <use xlink:href="#path-1"></use>
        </mask>
        <use id="Fill" fill="#5450F7" xlink:href="#path-1"></use>
    </g>
</svg>