<?xml version="1.0" encoding="UTF-8"?>
<svg width="24px" height="24px" viewBox="0 0 24 24" version="1.1" xmlns="http://www.w3.org/2000/svg" xmlns:xlink="http://www.w3.org/1999/xlink">
    <!-- Generator: Sketch 52.2 (67145) - http://www.bohemiancoding.com/sketch -->
    <title>Icon/Search</title>
    <desc>Created with Sketch.</desc>
    <defs>
        <path d="M20.6045645,18.2857697 L16.6577214,14.3307105 L16.6577217,14.33071 C17.4064855,13.1567317 17.8031202,11.7927543 17.8006617,10.4003186 C17.8006617,6.31323775 14.4874185,3 10.4003308,3 C6.31324324,3 3,6.31323775 3,10.4003186 C3,14.4873994 6.31324324,17.8006372 10.4003308,17.8006372 C10.4003308,17.8006372 10.4003308,17.8006372 10.4003308,17.8006372 L10.4003311,17.8006372 C11.7927692,17.8030987 13.1567406,17.4064617 14.3307291,16.6576991 L18.2857948,20.6045357 L18.2857946,20.6045355 C18.9756444,21.1953062 20.0137965,21.1149889 20.6045649,20.4251403 C21.1318122,19.8094708 21.1318114,18.9014393 20.6045644,18.2857657 L20.6045645,18.2857697 Z M10.4003305,14.5116072 L10.4003304,14.5116072 C8.12972795,14.5116071 6.28903544,12.6709177 6.28903544,10.4003191 C6.28903554,8.12972043 8.12972795,6.28903097 10.4003304,6.28903097 C12.6709328,6.28903107 14.5116253,8.12972043 14.5116253,10.4003191 L14.5116253,10.4003189 C14.5116253,12.6709175 12.6709328,14.511607 10.4003304,14.511607 L10.4003305,14.5116072 Z" id="path-1"></path>
    </defs>
    <g id="Icon/Search" stroke="none" stroke-width="1" fill="none" fill-rule="evenodd">
        <rect id="24pt-Bounding-Box" x="0" y="0" width="24" height="24"></rect>
        <mask id="mask-2" fill="white">
            <use xlink:href="#path-1"></use>
        </mask>
        <use id="Fill" fill="#303133" xlink:href="#path-1"></use>
    </g>
</svg>