<?xml version="1.0" encoding="UTF-8"?>
<svg width="24px" height="24px" viewBox="0 0 24 24" version="1.1" xmlns="http://www.w3.org/2000/svg" xmlns:xlink="http://www.w3.org/1999/xlink">
    <!-- Generator: Sketch 52.2 (67145) - http://www.bohemiancoding.com/sketch -->
    <title>Icon/Podcast</title>
    <desc>Created with Sketch.</desc>
    <defs>
        <path d="M12.000009,17 C8.7833566,17 6.16670152,18.8666667 6.16670152,21.1666667 L6.16670152,22 L17.8333165,22 L17.8333165,21.1666667 C17.8333165,18.8666667 15.2166614,17 12.000009,17 Z M16.0833243,16.2333333 C16.2299394,16.3509675 16.4120195,16.4155767 16.5999886,16.4166667 C16.8579017,16.4160467 17.1009923,16.2960392 17.2583191,16.0916667 L17.258319,16.0916668 C19.5216256,13.1875668 19.0021696,8.99855848 16.0980825,6.73525015 C13.1939953,4.47193348 9.00500554,4.99139181 6.74170723,7.89549181 C4.86394055,10.3049001 4.86394055,13.6822751 6.741707,16.0916835 C7.02475151,16.4552709 7.54894919,16.5205626 7.91253508,16.2375167 C8.27612097,15.9544709 8.34141234,15.4302709 8.05836776,15.0666834 C8.05836776,15.0666834 8.05836776,15.0666834 8.05836776,15.0666834 L8.058368,15.0666837 C7.37054522,14.1926837 6.99766437,13.1122087 7.00003936,12.000017 L7.00003936,12.0000178 C7.00003894,9.23859279 9.23860444,7.00001779 12.0000172,7.00001779 C14.76143,7.00001737 16.9999951,9.23859279 16.9999951,12.0000178 C16.9999951,12.0000178 16.9999951,12.0000178 16.9999951,12.0000178 L16.9999951,12.0000452 C17.0023623,13.1122369 16.6294768,14.1927119 15.9416498,15.0667035 C15.6599502,15.4283594 15.7232566,15.9496369 16.0833325,16.2333452 L16.0833243,16.2333333 Z M9.50002009,12 L9.50002009,12.0000004 C9.5000203,13.3807087 10.6193068,14.5000004 12.000009,14.5000004 C13.3807112,14.5000002 14.4999979,13.3807087 14.4999979,12.0000004 C14.4999977,10.619292 13.3807112,9.50000038 12.000009,9.50000038 C10.6193068,9.5000006 9.50002006,10.619292 9.50002006,12.0000004 L9.50002009,12 Z M12.000009,2 L12.0000086,2 C6.47718304,2.00000024 2.00005287,6.47715 2.00005287,12 C2.00005287,12 2.00005287,12 2.00005287,12 L2.00005251,12.0001093 C1.99265732,14.2705343 2.76653329,16.4743927 4.19177614,18.241751 C4.47830072,18.5807994 4.98030517,18.6357294 5.3333711,18.366666 C5.68815036,18.0779819 5.74393761,17.5572919 5.45837054,17.1999994 L5.45836974,17.1999984 C2.6072907,13.58709 3.22486296,8.34699835 6.83776363,5.49591502 C10.450656,2.64482335 15.6907244,3.26239835 18.5417951,6.87531502 C19.69424,8.33569835 20.3248789,10.139715 20.3332872,12.0000317 L20.3332875,12.0001753 C20.3369225,13.8911169 19.6928236,15.7262586 18.5082039,17.2001419 C18.2226368,17.5574344 18.2784241,18.0781252 18.6332033,18.3668086 C18.7820493,18.4862285 18.9673726,18.5509452 19.158201,18.5501418 C19.4103566,18.5509992 19.6493405,18.4376343 19.8081981,18.2418085 L19.8081986,18.241808 C21.2334839,16.4744163 22.0073638,14.270508 21.9999472,12.000033 L21.9999472,12.0000322 C21.9999472,6.47718222 17.522817,2.00003222 11.9999915,2.00003222 C11.9999912,2.00003222 11.999991,2.00003222 11.9999907,2.00003222 L12.000009,2 Z" id="path-1"></path>
    </defs>
    <g id="Icon/Podcast" stroke="none" stroke-width="1" fill="none" fill-rule="evenodd">
        <rect id="24pt-Bounding-Box" x="0" y="0" width="24" height="24"></rect>
        <mask id="mask-2" fill="white">
            <use xlink:href="#path-1"></use>
        </mask>
        <use id="Fill" fill="#fff" xlink:href="#path-1"></use>
    </g>
</svg>